<?xml version="1.0" encoding="iso-8859-1"?>
<!-- Generator: Adobe Illustrator 18.1.1, SVG Export Plug-In . SVG Version: 6.00 Build 0)  -->
<svg version="1.1" id="Capa_1" xmlns="http://www.w3.org/2000/svg" xmlns:xlink="http://www.w3.org/1999/xlink" x="0px" y="0px"
	 viewBox="0 0 18.135 18.135" style="enable-background:new 0 0 18.135 18.135;" xml:space="preserve">
<g>
	<path style="fill:#010002;" d="M16.281,0H1.854C0.831,0,0,0.83,0,1.855v14.426c0,1.024,0.831,1.854,1.854,1.854h14.427
		c1.022,0,1.854-0.827,1.854-1.854V1.855C18.136,0.83,17.306,0,16.281,0z M11.085,13.401H4.69v-0.627l1.966-0.271v-0.668
		L3.083,5.548L1.244,5.339L0.973,4.628l6.664,0.104v0.605L5.651,5.59L8.41,9.225l2.883-2.57L9.268,6.613V6.029h5.368l-0.251,0.562
		h-1.397L9.04,10.017v2.592h2.047L11.085,13.401z M13.759,13.508l-1.17-0.293l0.271-1.003l1.211,0.376L13.759,13.508z
		 M14.406,11.752l-1.024-0.292l1.254-4.763l2.527,0.855L14.406,11.752z"/>
</g>
<g>
</g>
<g>
</g>
<g>
</g>
<g>
</g>
<g>
</g>
<g>
</g>
<g>
</g>
<g>
</g>
<g>
</g>
<g>
</g>
<g>
</g>
<g>
</g>
<g>
</g>
<g>
</g>
<g>
</g>
</svg>
